<svg id="svg1591" height="512" viewBox="0 0 6.3499999 6.3500002" width="512" xmlns="http://www.w3.org/2000/svg" xmlns:svg="http://www.w3.org/2000/svg"><g id="layer1" transform="translate(0 -290.65)"><path id="path2109" d="m.79272852 291.97236a.26464845.26464845 0 0 0 0 .52917h4.76405028a.26464845.26464845 0 1 0 0-.52917zm0 1.5875a.264845.264845 0 0 0 0 .52969h4.76405028a.264845.264845 0 1 0 0-.52969zm-.0253215 1.58802a.26514415.26514415 0 0 0 .0253214.52968h4.76405038a.2648417.2648417 0 0 0 0-.52968h-4.76405028a.26460982.26460982 0 0 0 -.0253215 0z" font-variant-ligatures="normal" font-variant-position="normal" font-variant-caps="normal" font-variant-numeric="normal" font-variant-alternates="normal" font-feature-settings="normal" text-indent="0" text-align="start" text-decoration-line="none" text-decoration-style="solid" text-decoration-color="rgb(0,0,0)" text-transform="none" text-orientation="mixed" white-space="normal" shape-padding="0" isolation="auto" mix-blend-mode="normal" solid-color="rgb(0,0,0)" solid-opacity="1" vector-effect="none"/></g></svg>